HIERARCHY
ROOT Hips
{
	OFFSET -3.958830 18.904000 13.208200
	CHANNELS 6 Xposition Yposition Zposition Zrotation Yrotation Xrotation 
	JOINT LHipJoint
	{
		OFFSET 0.000000 0.000000 0.000000
		CHANNELS 3 Zrotation Yrotation Xrotation
		JOINT LeftUpLeg
		{
			OFFSET 1.800000 -1.400000 0.085000
			CHANNELS 3 Zrotation Yrotation Xrotation
			JOINT LeftLeg
			{
				OFFSET 2.215000 -6.000000 0.000000
				CHANNELS 3 Zrotation Yrotation Xrotation
				JOINT LeftFoot
				{
					OFFSET 2.500000 -6.900000 0.000000
					CHANNELS 3 Zrotation Yrotation Xrotation
					JOINT LeftToeBase
					{
						OFFSET 0.200000 -0.500000 1.950000
						CHANNELS 3 Zrotation Yrotation Xrotation
						End Site
						{
							OFFSET 0.000000 0.000000 0.000000
						}
					}
				}
			}
		}
	}
	JOINT RHipJoint
	{
		OFFSET 0.000000 0.000000 0.000000
		CHANNELS 3 Zrotation Yrotation Xrotation
		JOINT RightUpLeg
		{
			OFFSET -1.800000 -1.400000 0.085000
			CHANNELS 3 Zrotation Yrotation Xrotation
			JOINT RightLeg
			{
				OFFSET -2.215000 -6.000000 0.000000
				CHANNELS 3 Zrotation Yrotation Xrotation
				JOINT RightFoot
				{
					OFFSET -2.500000 -6.900000 0.000000
					CHANNELS 3 Zrotation Yrotation Xrotation
					JOINT RightToeBase
					{
						OFFSET -0.200000 -0.500000 1.950000
						CHANNELS 3 Zrotation Yrotation Xrotation
						End Site
						{
							OFFSET 0.000000 0.000000 0.000000
						}
					}
				}
			}
		}
	}
	JOINT LowerBack
	{
		OFFSET 0.000000 0.000000 0.000000
		CHANNELS 3 Zrotation Yrotation Xrotation
		JOINT Spine
		{
			OFFSET -0.087000 1.940000 -0.288900
			CHANNELS 3 Zrotation Yrotation Xrotation
			JOINT Spine1
			{
				OFFSET 0.000000 1.950000 0.060000
				CHANNELS 3 Zrotation Yrotation Xrotation
				JOINT Neck
				{
					OFFSET 0.000000 0.000000 0.000000
					CHANNELS 3 Zrotation Yrotation Xrotation
					JOINT Neck1
					{
						OFFSET 0.000000 1.600000 0.340000
						CHANNELS 3 Zrotation Yrotation Xrotation
						JOINT Head
						{
							OFFSET 0.000000 1.667000 -0.240000
							CHANNELS 3 Zrotation Yrotation Xrotation
							End Site
							{
								OFFSET 0.000000 0.000000 0.000000
							}
						}
					}
				}
				JOINT LeftShoulder
				{
					OFFSET 0.000000 0.000000 0.000000
					CHANNELS 3 Zrotation Yrotation Xrotation
					JOINT LeftArm
					{
						OFFSET 2.700000 1.550000 -0.730000
						CHANNELS 3 Zrotation Yrotation Xrotation
						JOINT LeftForeArm
						{
							OFFSET 5.450000 0.000000 0.000000
							CHANNELS 3 Zrotation Yrotation Xrotation
							JOINT LeftHand
							{
								OFFSET 3.450000 0.000000 0.000000
								CHANNELS 3 Zrotation Yrotation Xrotation
								JOINT LeftHandIndex1
								{
									OFFSET 0.750000 0.000000 0.000000
									CHANNELS 3 Zrotation Yrotation Xrotation
									End Site
									{
										OFFSET 0.000000 0.000000 0.000000
									}
								}
							}
						}
					}
				}
				JOINT RightShoulder
				{
					OFFSET 0.000000 0.000000 0.000000
					CHANNELS 3 Zrotation Yrotation Xrotation
					JOINT RightArm
					{
						OFFSET -2.700000 1.550000 -0.730000
						CHANNELS 3 Zrotation Yrotation Xrotation
						JOINT RightForeArm
						{
							OFFSET -5.450000 0.000000 0.000000
							CHANNELS 3 Zrotation Yrotation Xrotation
							JOINT RightHand
							{
								OFFSET -3.450000 0.000000 0.000000
								CHANNELS 3 Zrotation Yrotation Xrotation
								JOINT RightHandIndex1
								{
									OFFSET -0.750000 0.000000 0.000000
									CHANNELS 3 Zrotation Yrotation Xrotation
									End Site
									{
										OFFSET 0.000000 0.000000 0.000000
									}
								}
							}
						}
					}
				}
			}
		}
	}
}
MOTION
Frames: 14
Frame Time: 0.016667
0.613730 17.386590 -0.692030 -35.263054 26.543637 -25.195930 -15.294871 9.885936 2.839143 31.102466 2.248873 -32.123388 -3.117713 12.387859 35.993979 -0.491177 8.547362 1.379131 0.272020 -0.144360 0.076460 19.133593 -5.949134 7.214755 -34.264370 13.551654 -70.882908 68.964278 -48.753903 46.687083 -3.187536 -13.901997 0.180981 0.061570 0.388880 0.072780 -4.610883 -1.600782 -10.445490 22.519778 -13.157410 54.083137 -10.129938 0.340221 11.545288 2.238560 -10.419440 -14.578163 -25.985203 3.273123 42.958506 10.386720 -11.494370 -22.781640 -11.796172 -22.244491 6.099199 -23.475785 -7.049865 -10.047139 33.312568 -33.853002 -12.126998 -3.414895 2.432630 0.965170 -0.118900 -0.012910 0.146300 8.119455 30.416110 10.628656 30.377183 9.531179 -20.941643 -35.189167 51.817464 -17.738049 1.392841 -0.830033 -0.474150 0.657150 0.295760 -0.196040 
0.618070 17.367810 -0.694220 -35.365452 26.674004 -25.471081 -15.300656 9.904171 2.835012 30.932398 2.262945 -32.425995 -2.614903 12.359171 36.703354 -0.440795 8.556572 1.389405 0.288030 -0.122390 0.085240 19.129231 -5.932503 7.231145 -34.738057 13.181190 -70.801126 69.967273 -49.067758 46.112535 -3.200634 -13.826157 0.219982 0.051920 0.366920 0.066340 -4.600196 -1.645166 -10.458631 22.592303 -13.285490 54.660409 -10.426593 0.403206 10.790524 2.436246 -10.483649 -14.789435 -26.573766 3.262191 43.163333 10.631070 -11.684200 -23.133070 -12.215168 -22.446242 6.040665 -22.467790 -7.110026 -10.046524 33.010697 -34.074973 -11.940611 -3.381346 2.440252 0.967250 -0.139700 0.007630 0.164580 8.141901 30.662999 10.759046 29.577252 8.977984 -20.898265 -35.201411 51.816935 -17.496396 1.404878 -0.839968 -0.453070 0.649090 0.264280 -0.187910 
0.639170 17.338850 -0.694970 -35.780234 26.764158 -26.710537 -15.311168 9.964854 2.835286 31.134951 2.418515 -32.323030 -1.928965 12.453083 37.996858 -0.409033 8.686328 1.342663 0.305630 -0.085930 0.104330 19.106881 -5.982756 7.160286 -35.024361 12.904067 -69.173874 71.461866 -49.301575 45.126021 -3.193241 -13.665269 0.272865 0.064950 0.350120 0.039010 -4.573734 -1.672702 -10.442302 22.408331 -13.478972 55.884734 -10.670930 0.319171 11.016358 2.632678 -10.367075 -15.176168 -26.515857 3.445910 43.348616 11.409270 -11.354680 -24.500180 -12.103845 -23.352380 6.238836 -20.904137 -6.941553 -10.149969 33.681594 -32.641674 -11.717782 -3.375649 2.424681 0.984790 -0.163730 0.028180 0.163720 7.700473 31.462394 10.873785 27.815329 9.194495 -20.861821 -36.741645 49.921464 -17.483017 1.431194 -0.839974 -0.454950 0.679570 0.248830 -0.189290 
0.648790 17.319130 -0.687950 -35.698623 27.596413 -28.033870 -15.348674 10.190573 2.765824 30.506789 2.251355 -31.993847 -1.091499 12.211293 38.977841 -0.374767 8.637835 1.331563 0.355950 -0.027210 0.134910 19.031388 -6.041833 7.095697 -35.436512 12.319979 -66.888462 72.474874 -49.801853 44.761544 -3.201684 -13.563912 0.278873 0.076930 0.285880 0.048250 -4.449496 -1.956574 -10.392394 20.879433 -12.872606 57.283789 -9.884372 0.049093 11.103935 2.607462 -10.201417 -15.776071 -26.516126 3.773751 43.858800 12.557890 -11.040320 -25.313820 -11.866425 -24.281003 6.634012 -19.798569 -6.371122 -10.253504 34.015878 -30.867355 -11.286527 -3.343927 2.519077 0.994580 -0.208340 0.066070 0.163600 7.628106 32.357071 11.071924 25.422150 9.231281 -20.504282 -36.215857 47.571343 -16.267094 1.495342 -0.925186 -0.409480 0.627850 0.213290 -0.190100 
0.669520 17.305400 -0.658600 -35.760694 27.379168 -29.391483 -15.366909 10.335465 2.706429 30.827699 2.632624 -31.038523 -0.633011 12.335375 39.686702 -0.343413 8.724055 1.274878 0.382490 0.027660 0.117120 18.990245 -6.079663 7.031941 -35.187074 12.698612 -65.499669 72.477965 -51.190353 45.805354 -3.272147 -13.700464 0.250455 0.095580 0.271850 0.056540 -4.373883 -2.111840 -10.350078 19.909977 -12.281355 58.228339 -9.348092 -0.093147 10.983406 2.434865 -10.396242 -15.985007 -27.240724 4.873591 44.301872 14.437240 -10.419120 -26.945980 -12.039054 -24.312462 6.783276 -20.420056 -5.475540 -10.626580 35.117456 -30.445444 -11.597632 -3.322846 2.541132 1.015150 -0.232370 0.098250 0.171610 8.200966 32.612060 10.998990 23.833374 10.260458 -19.468274 -33.481493 45.090038 -14.076725 1.535866 -0.949150 -0.386140 0.626680 0.210270 -0.174010 
0.708550 17.308300 -0.607760 -35.340675 26.291324 -30.458970 -15.371020 10.557543 2.607608 31.405577 3.228486 -29.072529 -0.458179 12.609482 39.995172 -0.281292 8.843510 1.233782 0.367460 0.010910 0.101090 18.938928 -6.193771 6.922750 -33.823740 14.025929 -63.376497 71.096230 -52.351938 47.917144 -3.353795 -13.962650 0.187395 0.075310 0.281420 0.060420 -4.297443 -2.245102 -10.269067 19.096037 -11.157300 58.759226 -8.574093 0.286959 10.491379 2.149791 -10.641172 -16.198296 -28.491581 6.163208 45.036225 16.216820 -10.163760 -27.295520 -13.150798 -23.938773 6.956509 -22.142305 -4.342754 -10.811190 35.578356 -30.438157 -11.821790 -3.303236 2.537301 1.030830 -0.248680 0.111820 0.171160 9.936589 32.543945 11.185989 23.724398 8.802568 -19.986826 -32.072245 47.081017 -13.922489 1.539941 -0.911501 -0.382930 0.631840 0.219440 -0.161240 
0.743070 17.314950 -0.538010 -34.989132 26.028434 -30.642137 -15.357688 10.654393 2.558649 31.651015 3.514445 -28.072043 -0.342523 12.799208 40.237342 -0.198701 8.842176 1.219568 0.418350 0.094410 0.091810 18.914922 -6.330948 6.808874 -32.760311 14.363829 -61.154048 69.001229 -54.239684 50.782140 -3.452136 -14.296001 0.115715 0.100030 0.253540 0.060080 -4.306044 -2.215812 -10.215288 18.814243 -10.053610 56.993355 -8.053472 0.718910 10.158883 1.616642 -10.453612 -16.139201 -28.884688 7.567259 46.551511 17.962090 -9.860070 -26.011770 -14.418691 -23.251161 6.934917 -23.838694 -3.874172 -10.477354 33.336406 -30.536146 -11.093160 -3.245906 2.603743 0.995180 -0.265970 0.125680 0.200180 12.206800 31.628482 11.340463 25.571170 7.247578 -19.855810 -29.117142 48.160364 -13.057013 1.562654 -0.966378 -0.327500 0.585310 0.174300 -0.133200 
0.792840 17.331360 -0.463730 -34.746076 26.277785 -30.643014 -15.364436 10.838733 2.477209 31.340174 3.613694 -27.218563 -0.061249 12.664771 39.945824 -0.224089 8.771058 1.246987 0.413340 0.076220 0.098270 18.851544 -6.437248 6.727033 -31.893594 14.469533 -58.176554 62.747504 -57.560766 57.991239 -3.648227 -15.102200 -0.059796 0.095100 0.261770 0.053540 -4.236330 -2.396501 -10.162575 18.537684 -8.830420 54.762222 -7.247004 1.070001 9.565726 1.392796 -9.932607 -16.005353 -28.440680 8.202998 48.876223 18.635950 -9.745110 -25.398280 -15.923210 -22.359739 6.759750 -26.483291 -3.394636 -9.822840 29.539834 -29.444992 -9.670558 -3.243925 2.560424 1.026140 -0.268320 0.130690 0.200310 14.081598 30.440904 11.631876 29.174827 4.855198 -20.128996 -26.089814 48.683389 -12.134205 1.554431 -0.946516 -0.350030 0.603930 0.179260 -0.146040 
0.840660 17.361760 -0.375610 -33.857148 26.553193 -29.520162 -15.383634 11.050917 2.443797 30.321829 3.664856 -27.300825 0.508784 12.501975 40.208318 -0.224464 8.686540 1.281807 0.407200 0.079840 0.106890 18.766169 -6.563181 6.619451 -30.539352 15.110735 -54.529173 54.962566 -58.018803 65.188484 -3.824191 -15.930845 -0.237488 0.094240 0.267110 0.030670 -4.109778 -2.583080 -10.115940 17.353805 -6.539181 51.020864 -5.842611 2.088125 8.710686 1.138997 -9.085132 -15.661606 -26.917658 8.910058 53.104518 18.841750 -9.300890 -23.570380 -17.299168 -20.345162 6.302928 -31.809021 -2.372130 -9.795094 25.926793 -29.276922 -8.713372 -3.241657 2.495814 1.034590 -0.264340 0.138450 0.202010 15.818696 28.609345 11.672906 33.529237 3.862327 -18.828194 -21.134798 44.572815 -9.361840 1.621537 -0.945797 -0.364310 0.626170 0.170940 -0.153300 
0.900410 17.382420 -0.268290 -34.109592 26.792212 -28.200425 -15.372274 11.011693 2.655317 31.008101 3.721831 -27.597666 -0.693700 12.919102 39.327047 -0.237602 8.732426 1.264102 0.339860 -0.016360 0.115580 18.728343 -6.743818 6.361637 -27.683479 15.611787 -50.313882 45.256748 -57.105129 73.260832 -3.994491 -16.935173 -0.446640 0.037610 0.270700 0.011760 -4.102497 -2.406759 -10.149882 17.694014 -5.238969 46.345605 -5.747564 3.178477 6.010235 1.276691 -7.776784 -14.843033 -23.495013 8.714337 58.171856 17.820480 -8.703180 -20.154620 -18.081941 -16.330457 5.250388 -37.882218 -0.546098 -10.412123 22.284830 -30.209349 -7.933068 -3.294970 2.397880 1.058980 -0.238560 0.123410 0.164860 16.015434 24.503329 11.310949 41.561914 0.969938 -17.715331 -17.567632 39.432205 -7.100997 1.695855 -0.877269 -0.405720 0.620890 0.195650 -0.197340 
0.971080 17.410490 -0.139900 -33.366449 27.114127 -26.051625 -15.423257 11.167333 2.874346 30.974442 3.625574 -27.804322 -2.166625 13.446747 38.506658 -0.266333 8.851776 1.218677 0.178520 -0.274140 0.103450 18.613209 -6.859611 6.141048 -25.500686 15.837794 -46.565467 35.930595 -54.762925 80.782684 -4.086882 -17.799788 -0.654803 -0.106800 0.291930 0.027640 -3.857955 -2.632174 -10.206081 16.045205 -2.800772 42.662102 -4.366599 4.613088 -0.697097 1.112919 -6.499243 -13.626273 -20.381123 8.220383 64.081906 16.410400 -8.847910 -15.273210 -18.996385 -9.273232 3.272242 -43.650244 2.447703 -10.246792 14.761261 -27.956416 -5.425633 -3.450459 2.272980 1.123200 -0.202590 0.094570 0.080670 16.916853 17.612611 10.155944 48.685637 -4.978224 -18.416704 -11.520884 37.506679 -4.540408 1.769537 -0.748402 -0.479630 0.585640 0.287900 -0.265450 
1.102760 17.406630 0.070580 -32.424324 29.069377 -22.491865 -15.477438 11.349607 3.168615 30.043738 2.926620 -28.807908 -4.185980 13.816466 36.965213 -0.252690 8.702664 1.266364 0.082540 -0.448220 0.156190 18.469794 -7.152225 5.824924 -24.704384 14.068639 -41.959102 28.270885 -51.228211 85.105350 -4.025467 -17.920152 -0.697476 -0.246310 0.218570 0.023780 -3.613568 -2.766588 -10.249042 13.386708 -0.709772 36.180094 -3.048207 4.920247 -10.536194 0.972470 -4.690169 -12.063747 -15.887715 7.063996 71.917300 12.802350 -8.305620 -7.578530 -17.222206 2.109896 0.947958 -48.127517 8.809685 -10.991779 6.640024 -25.656483 -3.094619 -3.545010 2.170879 1.156770 -0.200620 0.106210 0.018540 15.106723 5.593762 7.531468 56.419771 -11.763425 -19.447650 -5.277605 35.131689 -2.068404 1.906365 -0.638597 -0.486960 0.491820 0.290920 -0.336260 
1.233320 17.426160 0.263610 -31.222484 28.762026 -19.347705 -15.458886 11.468051 3.440315 30.404569 2.882278 -27.899566 -6.936243 14.523451 34.698677 -0.217071 8.677383 1.263615 0.034600 -0.548750 0.179700 18.401755 -7.730876 5.296848 -22.389073 13.129772 -37.269919 20.016749 -45.162775 88.631615 -3.849967 -17.680708 -0.678699 -0.324730 0.169100 0.026340 -3.607592 -2.344532 -10.192388 11.755769 0.677446 28.625419 -3.487676 4.803871 -14.553370 1.521461 -2.923350 -12.025285 -11.553734 5.241356 76.629907 8.432010 -7.481310 1.815510 -13.427503 9.273664 0.456614 -50.329309 16.261301 -13.000356 1.895047 -22.038304 -2.135442 -3.611820 2.116399 1.142720 -0.172210 0.090400 -0.008030 10.175741 -3.038109 6.788464 61.583709 -19.373590 -21.392861 2.567522 30.342283 -0.213272 2.006638 -0.570800 -0.476130 0.396420 0.285720 -0.378770 
1.301800 17.458450 0.393010 -29.121811 28.500106 -17.572512 -15.395643 11.743830 3.424921 29.326474 2.619513 -25.941349 -8.480666 14.559777 32.987083 -0.218621 8.540614 1.339033 -0.005900 -0.635710 0.177490 18.360124 -8.498531 4.721261 -20.936038 12.037909 -32.618948 12.809360 -38.333970 90.530596 -3.554585 -16.902229 -0.550999 -0.367910 0.196450 0.034020 -3.759947 -1.826089 -9.914747 9.663192 0.908526 22.758723 -4.507866 3.326573 -14.208633 1.832298 -2.640821 -11.840670 -11.025919 5.571813 77.809176 5.284820 -6.046190 7.923590 -9.969455 13.796925 0.736675 -51.872112 22.953880 -15.474339 -0.849326 -17.963570 -2.027693 -3.686690 2.031487 1.128060 -0.134360 0.058820 -0.002110 6.113484 -8.625211 6.057694 65.223418 -22.992550 -23.077903 6.762030 24.297941 -0.041519 2.108735 -0.460061 -0.496210 0.377730 0.298310 -0.389840 
